<?xml version="1.0" standalone="no"?>
<!DOCTYPE svg PUBLIC "-//W3C//DTD SVG 20010904//EN"
 "http://www.w3.org/TR/2001/REC-SVG-20010904/DTD/svg10.dtd">
<svg version="1.0" xmlns="http://www.w3.org/2000/svg"
 width="64.000000pt" height="76.000000pt" viewBox="0 0 64.000000 76.000000"
 preserveAspectRatio="xMidYMid meet">

<g transform="translate(0.000000,76.000000) scale(0.100000,-0.100000)"
fill="#000000" stroke="none">
<path d="M248 731 l-33 -29 0 -104 c0 -101 -1 -105 -31 -143 -32 -41 -82 -149
-91 -197 -4 -23 -2 -26 16 -21 17 4 27 -6 58 -56 23 -37 45 -61 56 -61 32 0
18 38 -29 76 -44 36 -46 40 -41 80 4 38 16 71 68 179 10 22 19 46 19 54 0 11
4 11 18 -2 10 -10 29 -17 43 -16 21 1 20 2 -7 10 -17 5 -37 16 -44 24 -18 22
-24 106 -8 116 16 10 38 -8 38 -32 0 -13 7 -19 21 -19 11 0 17 4 14 10 -11 18
15 51 38 48 20 -3 23 -11 27 -73 3 -38 14 -88 25 -110 10 -22 29 -62 42 -89
17 -38 23 -67 23 -122 0 -40 5 -76 11 -79 18 -12 58 4 75 30 34 53 15 149 -48
233 -52 71 -68 111 -68 175 0 122 -111 190 -192 118z"/>
<path d="M240 601 c0 -12 6 -21 16 -21 9 0 14 7 12 17 -5 25 -28 28 -28 4z"/>
<path d="M330 601 c0 -15 6 -21 21 -21 25 0 22 33 -4 38 -12 2 -17 -3 -17 -17z"/>
<path d="M410 125 c-13 -13 -43 -32 -67 -41 -40 -15 -47 -16 -83 -1 l-40 15 0
-27 c0 -34 -17 -51 -50 -51 -20 0 -22 -2 -10 -10 24 -15 49 -12 67 10 25 29
142 29 197 -1 46 -24 68 -20 116 22 l35 31 -42 -21 c-23 -12 -49 -21 -57 -21
-25 0 -49 46 -44 85 2 19 3 35 3 35 -1 0 -12 -11 -25 -25z"/>
</g>
</svg>
